<svg width="64" height="64" viewBox="0 0 64 64" fill="none" xmlns="http://www.w3.org/2000/svg">
<g clip-path="url(#clip0_7214_426)">
<path d="M31.94 51.3804L22.85 56.6304L13.75 51.4004L22.85 46.1504L31.94 51.3804Z" fill="white" stroke="#231F20" stroke-width="1.5" stroke-linecap="round" stroke-linejoin="round"/>
<path d="M41.03 46.1504L31.94 51.3804L22.85 46.1504L31.94 40.9004L41.03 46.1504Z" fill="#231F20" stroke="#231F20" stroke-width="1.5" stroke-linecap="round" stroke-linejoin="round"/>
<path d="M31.94 40.9002L22.85 46.1502L13.76 40.9002L22.85 35.6602L31.94 40.9002Z" fill="white" stroke="#231F20" stroke-width="1.5" stroke-linecap="round" stroke-linejoin="round"/>
<path d="M50.1099 40.9002L41.0299 46.1502L31.9399 40.9002L41.0299 35.6602L50.1099 40.9002Z" fill="white" stroke="#231F20" stroke-width="1.5" stroke-linecap="round" stroke-linejoin="round"/>
<path d="M50.1299 51.4004L41.0299 56.6304L31.9399 51.3804L41.0299 46.1504L50.1299 51.4004Z" fill="white" stroke="#231F20" stroke-width="1.5" stroke-linecap="round" stroke-linejoin="round"/>
<path d="M39.11 42.1905C38.28 40.3705 35.35 40.2305 31.86 40.2305C28.37 40.2305 25.44 40.3705 24.61 42.1905H24.37V44.4405C24.37 46.7705 27.73 48.6605 31.87 48.6605C36.01 48.6605 39.37 46.7705 39.37 44.4405V42.1905H39.13H39.11Z" fill="#B6CE0C" stroke="#231F20" stroke-width="1.5" stroke-linecap="round" stroke-linejoin="round"/>
<path d="M31.85 45.9804C35.9921 45.9804 39.35 44.2835 39.35 42.1904C39.35 40.0972 35.9921 38.4004 31.85 38.4004C27.7078 38.4004 24.35 40.0972 24.35 42.1904C24.35 44.2835 27.7078 45.9804 31.85 45.9804Z" fill="white" stroke="#231F20" stroke-width="1.5" stroke-linecap="round" stroke-linejoin="round"/>
<path d="M36.89 35.57C36.27 34.58 35.54 33.55 34.84 32.15C33.37 29.21 33.77 26.71 33.77 26.71H29.85C29.85 26.71 30.25 29.2 28.78 32.15C27.48 34.76 26.08 36.09 25.46 38.32C28.69 38.56 33.61 38.35 36.89 35.57Z" fill="#D6F600"/>
<path d="M25.2599 39.1003C25.2599 39.1003 25.2399 39.1703 25.2299 39.2103C25.1899 39.4303 25.1699 39.6403 25.1699 39.8303C25.1699 42.1603 28.1499 44.0503 31.8199 44.0503C35.4899 44.0503 38.4699 42.1603 38.4699 39.8303C38.4699 39.3903 38.3599 38.8503 38.1599 38.2803C37.8699 37.2603 37.4099 36.4303 36.8699 35.5703C33.5899 38.3603 28.6699 38.5603 25.4399 38.3203C25.3999 38.4603 25.3499 38.5903 25.3199 38.7403C25.2899 38.8603 25.2599 38.9803 25.2399 39.1003H25.2599Z" fill="#B6CE0C"/>
<path d="M38.17 38.2797C37.54 36.0597 36.13 34.7497 34.83 32.1597C33.36 29.2197 33.76 26.7197 33.76 26.7197H29.84C29.84 26.7197 30.24 29.2097 28.77 32.1597C27.39 34.9297 25.89 36.2397 25.33 38.7497C25.3 38.8697 25.27 38.9897 25.25 39.1097C25.25 39.1497 25.23 39.1797 25.22 39.2197C25.18 39.4397 25.16 39.6497 25.16 39.8397C25.16 42.1697 28.14 44.0597 31.81 44.0597C35.48 44.0597 38.46 42.1697 38.46 39.8397C38.46 39.3997 38.35 38.8597 38.15 38.2897L38.17 38.2797Z" stroke="#231F20" stroke-width="1.5" stroke-linecap="round" stroke-linejoin="round"/>
<path d="M31.8499 30.7004C34.0204 30.7004 35.7799 29.6349 35.7799 28.3204C35.7799 27.006 34.0204 25.9404 31.8499 25.9404C29.6794 25.9404 27.9199 27.006 27.9199 28.3204C27.9199 29.6349 29.6794 30.7004 31.8499 30.7004Z" fill="white" stroke="#231F20" stroke-width="1.5" stroke-linecap="round" stroke-linejoin="round"/>
<path d="M31.82 28.65C33.4382 28.65 34.75 27.3382 34.75 25.72C34.75 24.1018 33.4382 22.79 31.82 22.79C30.2018 22.79 28.89 24.1018 28.89 25.72C28.89 27.3382 30.2018 28.65 31.82 28.65Z" fill="#D6F600" stroke="#231F20" stroke-width="1.5" stroke-linecap="round" stroke-linejoin="round"/>
<path d="M31.8499 24.8597C33.8823 24.8597 35.5299 23.933 35.5299 22.7897C35.5299 21.6465 33.8823 20.7197 31.8499 20.7197C29.8175 20.7197 28.1699 21.6465 28.1699 22.7897C28.1699 23.933 29.8175 24.8597 31.8499 24.8597Z" fill="white" stroke="#231F20" stroke-width="1.5" stroke-linecap="round" stroke-linejoin="round"/>
<path d="M28.63 19.1807L29.78 21.9007C29.78 22.5407 30.7 23.0607 31.84 23.0607C32.98 23.0607 33.9 22.5407 33.9 21.9007L34.53 20.4207C33.67 20.6807 32.76 20.8307 31.82 20.8307C30.88 20.8307 29.47 19.4307 28.63 19.1807Z" fill="#D6F600"/>
<path d="M26.86 14.9905L28.63 19.1705C29.19 19.9505 30.23 20.8205 31.82 20.8205C32.65 20.8205 33.68 20.6805 34.53 20.4105L36.83 14.9805H26.85L26.86 14.9905Z" fill="#B6CE0C"/>
<path d="M26.86 14.9902L29.79 21.8902C29.79 22.5302 30.71 23.0502 31.85 23.0502C32.99 23.0502 33.91 22.5302 33.91 21.8902L36.84 14.9902H26.86Z" stroke="#231F20" stroke-width="1.5" stroke-linecap="round" stroke-linejoin="round"/>
<path d="M31.85 17.2796C34.6611 17.2796 36.94 15.9991 36.94 14.4196C36.94 12.84 34.6611 11.5596 31.85 11.5596C29.0389 11.5596 26.76 12.84 26.76 14.4196C26.76 15.9991 29.0389 17.2796 31.85 17.2796Z" fill="white" stroke="#231F20" stroke-width="1.5" stroke-linecap="round" stroke-linejoin="round"/>
<path d="M28.9 11.0801C28.48 11.6701 28.23 12.4001 28.23 13.1801C28.23 14.4601 29.84 15.5101 31.82 15.5101C33.1 15.5101 34.21 15.0801 34.85 14.4201C32.39 14.2501 30.25 12.9701 28.9 11.0801Z" fill="#D6F600"/>
<path d="M31.82 9.54004C30.61 9.54004 29.55 10.15 28.9 11.08C30.25 12.97 32.39 14.25 34.85 14.42C35.2 14.06 35.41 13.64 35.41 13.18C35.41 11.17 33.8 9.54004 31.82 9.54004Z" fill="#F6FFA4"/>
<path d="M31.82 15.5003C33.8 15.5003 35.41 14.4603 35.41 13.1703C35.41 11.1603 33.8 9.53027 31.82 9.53027C29.84 9.53027 28.23 11.1603 28.23 13.1703C28.23 14.4503 29.84 15.5003 31.82 15.5003Z" stroke="#231F20" stroke-width="1.5" stroke-linecap="round" stroke-linejoin="round"/>
<path d="M31.85 10.75C32.6784 10.75 33.35 10.0784 33.35 9.25C33.35 8.42157 32.6784 7.75 31.85 7.75C31.0215 7.75 30.35 8.42157 30.35 9.25C30.35 10.0784 31.0215 10.75 31.85 10.75Z" fill="white" stroke="#231F20" stroke-width="1.5" stroke-linecap="round" stroke-linejoin="round"/>
</g>
<defs>
<clipPath id="clip0_7214_426">
<rect width="37.88" height="50.38" fill="white" transform="translate(13 7)"/>
</clipPath>
</defs>
</svg>
