<svg width="64" height="64" viewBox="0 0 64 64" fill="none" xmlns="http://www.w3.org/2000/svg">
<g clip-path="url(#clip0_7214_429)">
<path d="M28.36 59.5902H35.41V31.2102H40.53V29.8402H45.72V16.4902L28.36 25.9002V59.5902Z" fill="#D6F600"/>
<path d="M35.41 59.5909H38.84V32.6309H40.53V31.2109H35.41V59.5909Z" fill="#B6CE0C"/>
<path d="M28.36 14.3305V25.9005L45.72 16.4905V10.7305L28.36 14.3305Z" fill="#F6FFA4"/>
<path d="M55.89 59.5904C55.16 57.6504 53.3 56.2504 51.1 56.2504C50.53 56.2504 50 56.3604 49.49 56.5304C49.13 54.3304 47.24 52.6504 44.94 52.6504C42.92 52.6504 41.22 53.9604 40.59 55.7704C40.01 55.1904 39.22 54.8404 38.34 54.8404C37.61 54.8404 36.94 55.1004 36.4 55.5204C35.33 53.8004 33.43 52.6604 31.25 52.6604C28.65 52.6604 26.44 54.2904 25.57 56.5904C25.15 56.3904 24.68 56.2604 24.19 56.2604C24.05 56.2604 23.92 56.2804 23.79 56.3004C23.25 55.3104 22.22 54.6304 21.01 54.6304C19.26 54.6304 17.83 56.0504 17.83 57.8104C17.83 58.4704 18.03 59.0904 18.38 59.5904H55.88H55.89Z" fill="white" stroke="#231F20" stroke-width="1.5" stroke-linecap="round" stroke-linejoin="round"/>
<path d="M38.84 54.8403V33.5703H55.89V59.5903" stroke="#231F20" stroke-width="1.5" stroke-linecap="round" stroke-linejoin="round"/>
<path d="M42.2 53.3499V36.8799H52.53V56.4599" stroke="#231F20" stroke-width="1.5" stroke-linecap="round" stroke-linejoin="round"/>
<path d="M40.53 33.5698V29.8398H54.65V33.5698" stroke="#231F20" stroke-width="1.5" stroke-linecap="round" stroke-linejoin="round"/>
<path d="M49.29 29.8402V24.9502H52.78V29.8402" stroke="#231F20" stroke-width="1.5" stroke-linecap="round" stroke-linejoin="round"/>
<path d="M47.36 36.8799V53.3499" stroke="#231F20" stroke-width="1.5" stroke-linecap="round" stroke-linejoin="round"/>
<path d="M51.03 20.71V24.95" stroke="#231F20" stroke-width="1.5" stroke-linecap="round" stroke-linejoin="round"/>
<path d="M45.72 29.8405V10.7305L28.36 14.3305V53.3505" stroke="#231F20" stroke-width="1.5" stroke-linecap="round" stroke-linejoin="round"/>
<path d="M42.32 11.4303V8.53027L31.75 10.7303V13.6103" stroke="#231F20" stroke-width="1.5" stroke-linecap="round" stroke-linejoin="round"/>
<path d="M35.41 17.7803H31.83V23.2203H35.41V17.7803Z" stroke="#231F20" stroke-width="1.5" stroke-linecap="round" stroke-linejoin="round"/>
<path d="M18.8 22.1104H17.01V24.0504H18.8V22.1104Z" fill="#231F20"/>
<path d="M22.24 22.1104H20.45V24.0504H22.24V22.1104Z" fill="#231F20"/>
<path d="M25.68 22.1104H23.89V24.0504H25.68V22.1104Z" fill="#231F20"/>
<path d="M18.8 25.6104H17.01V27.5504H18.8V25.6104Z" fill="#231F20"/>
<path d="M22.24 25.6104H20.45V27.5504H22.24V25.6104Z" fill="#231F20"/>
<path d="M25.68 25.6104H23.89V27.5504H25.68V25.6104Z" fill="#231F20"/>
<path d="M18.8 29.1201H17.01V31.0601H18.8V29.1201Z" fill="#231F20"/>
<path d="M22.24 29.1201H20.45V31.0601H22.24V29.1201Z" fill="#231F20"/>
<path d="M25.68 29.1201H23.89V31.0601H25.68V29.1201Z" fill="#231F20"/>
<path d="M22.24 32.6299H20.45V34.5699H22.24V32.6299Z" fill="#231F20"/>
<path d="M25.68 32.6299H23.89V34.5699H25.68V32.6299Z" fill="#231F20"/>
<path d="M35.41 26.5996H31.83V32.0396H35.41V26.5996Z" stroke="#231F20" stroke-width="1.5" stroke-linecap="round" stroke-linejoin="round"/>
<path d="M35.41 35.4199H31.83V40.8599H35.41V35.4199Z" stroke="#231F20" stroke-width="1.5" stroke-linecap="round" stroke-linejoin="round"/>
<path d="M35.41 44.2402H31.83V49.6802H35.41V44.2402Z" stroke="#231F20" stroke-width="1.5" stroke-linecap="round" stroke-linejoin="round"/>
<path d="M42.32 17.7803H38.74V23.2203H42.32V17.7803Z" stroke="#231F20" stroke-width="1.5" stroke-linecap="round" stroke-linejoin="round"/>
<path d="M38.31 4.75V9.37" stroke="#231F20" stroke-width="1.5" stroke-linecap="round" stroke-linejoin="round"/>
<path d="M35.41 6.19043V9.97043" stroke="#231F20" stroke-width="1.5" stroke-linecap="round" stroke-linejoin="round"/>
<path d="M28.36 19.6201H12.54" stroke="#231F20" stroke-width="1.5" stroke-linecap="round" stroke-linejoin="round"/>
<path d="M14.38 31.2101V19.6201" stroke="#231F20" stroke-width="1.5" stroke-linecap="round" stroke-linejoin="round"/>
<path d="M12.54 37.3799V59.5899" stroke="#231F20" stroke-width="1.5" stroke-linecap="round" stroke-linejoin="round"/>
<path d="M9.13 53.3496V59.5896" stroke="#231F20" stroke-width="1.5" stroke-linecap="round" stroke-linejoin="round"/>
<path d="M12.54 49.68L17.47 44.75" stroke="#231F20" stroke-width="1.5" stroke-linecap="round" stroke-linejoin="round"/>
<path d="M17.84 39.1696C17.84 34.5896 15.47 31.0596 12.55 31.0596C9.63001 31.0596 7.26001 34.5896 7.26001 39.1696C7.26001 42.0896 9.63001 44.4596 12.55 44.4596C15.47 44.4596 17.84 42.0896 17.84 39.1696Z" stroke="#231F20" stroke-width="1.5" stroke-linecap="round" stroke-linejoin="round"/>
<path d="M13.77 44.3603C13.89 45.3603 14.4 46.3103 15.26 46.9803C16.97 48.3103 19.44 48.0103 20.78 46.2903C22.87 43.6003 23.09 40.4602 21.38 39.1202C20.48 38.4202 19.21 38.3603 17.92 38.8603" stroke="#231F20" stroke-width="1.5" stroke-linecap="round" stroke-linejoin="round"/>
<path d="M12.5 51.2803C12.5 48.3603 10.99 46.1104 9.11999 46.1104C7.24999 46.1104 5.73999 48.3603 5.73999 51.2803C5.73999 53.1403 7.24999 54.6604 9.11999 54.6604C10.99 54.6604 12.5 53.1503 12.5 51.2803Z" stroke="#231F20" stroke-width="1.5" stroke-linecap="round" stroke-linejoin="round"/>
<path d="M58.52 59.5898H5.75" stroke="#231F20" stroke-width="1.5" stroke-linecap="round" stroke-linejoin="round"/>
</g>
<defs>
<clipPath id="clip0_7214_429">
<rect width="54.27" height="56.34" fill="white" transform="translate(5 4)"/>
</clipPath>
</defs>
</svg>
