<svg width="64" height="64" viewBox="0 0 64 64" fill="none" xmlns="http://www.w3.org/2000/svg">
<g clip-path="url(#clip0_7214_423)">
<path d="M47.5799 25.2301C47.5799 25.2301 44.1999 29.6901 50.2599 30.7001V24.5001C50.2599 19.5901 46.8499 18.5801 46.8499 18.5801H45.8399C45.8399 18.5801 47.4099 19.8201 46.2099 20.6401C45.0099 21.4601 41.6399 19.2901 41.6399 19.2901L41.4199 19.5401L42.5899 20.7401L47.5699 25.2301H47.5799Z" fill="#F6FFA4"/>
<path d="M42.9599 23.2298C42.9999 24.8798 41.6899 25.2298 41.6899 25.2298C43.7799 27.3198 44.8699 31.8798 44.8699 31.8798H50.2599V30.7098C44.1899 29.6898 47.5799 25.2398 47.5799 25.2398L42.5999 20.7498L41.4299 19.5498L40.9399 20.1198C40.9399 20.1198 42.9199 21.5798 42.9599 23.2298Z" fill="#B6CE0C"/>
<path d="M40.9399 20.1198L41.6499 19.2998C41.6499 19.2998 45.0199 21.4698 46.2199 20.6498C47.4199 19.8298 45.8499 18.5898 45.8499 18.5898H46.8599C46.8599 18.5898 50.2699 19.5998 50.2699 24.5098V31.8898H44.8799C44.8799 31.8898 43.7799 27.3298 41.6999 25.2398C41.6999 25.2398 43.0099 24.8798 42.9699 23.2398C42.9299 21.5998 40.9499 20.1298 40.9499 20.1298L40.9399 20.1198Z" stroke="#231F20" stroke-width="1.5" stroke-linecap="round" stroke-linejoin="round"/>
<path d="M40.9399 20.1196C40.9399 20.1196 39.6499 19.6896 37.6799 19.8596L34.3699 17.6696C34.3699 17.6696 34.7099 15.8196 33.5799 14.0196C32.4499 12.2196 31.8899 9.24961 31.8899 9.24961L33.0699 7.27961L31.1599 6.09961C31.1599 6.09961 28.2999 6.99961 29.8699 9.57961C29.8699 9.57961 32.1699 18.2296 32.7299 19.1896C33.2899 20.1496 39.0199 22.6696 39.0199 22.6696C39.0199 22.6696 40.8599 24.8196 41.6799 25.2396" stroke="#231F20" stroke-width="1.5" stroke-linecap="round" stroke-linejoin="round"/>
<path d="M48.7 31.8796L43.48 37.7397L41.76 37.0696L42.36 33.8396C42.36 33.8396 43.17 31.8596 44.84 31.7396C46.51 31.6196 48.71 31.8796 48.71 31.8796H48.7Z" fill="#D6F600"/>
<path d="M44.8699 31.8799C44.8699 31.8799 42.6199 32.2699 42.2299 34.2999L41.6899 37.2799L47.3399 39.3599L50.2599 31.8899H44.8699V31.8799Z" stroke="#231F20" stroke-width="1.5" stroke-linecap="round" stroke-linejoin="round"/>
<path d="M49.22 20.5195L57.12 24.4095L59.09 25.2295L59.48 27.8295L58.41 27.4095L57.9 26.2595C57.9 26.2595 56.95 26.2195 56.44 25.2295L52.84 24.1795L50.26 23.7395" fill="#231F20"/>
<path d="M42.32 19.6902C42.32 19.6902 43.36 19.3502 42.85 17.2202C42.85 17.2202 41.23 15.3702 42.32 14.5802C43.41 13.7902 44.31 14.3602 44.93 15.2002C45.55 16.0402 46.22 16.9502 46.22 16.9502L45.21 17.9502C45.21 17.9502 44.84 18.5902 45.85 18.5902" stroke="#231F20" stroke-width="1.5" stroke-linecap="round" stroke-linejoin="round"/>
<path d="M41.6899 37.2695L40.9399 41.2595C40.9399 41.2595 39.9899 39.5395 37.4399 39.6895C34.8899 39.8395 28.8799 41.1495 28.8799 41.1495L28.0599 42.2695L42.3099 44.3295L45.6099 38.7095" stroke="#231F20" stroke-width="1.5" stroke-linecap="round" stroke-linejoin="round"/>
<path d="M41.9399 36.1701C41.9399 36.1701 41.6299 33.9101 38.1899 33.3901C34.7499 32.8701 32.19 32.0801 32.19 32.0801L31.45 33.3901L41.41 37.7301" fill="#231F20"/>
<path d="M28.88 41.1398L27.08 39.3398L23.74 44.3198C23.74 44.3198 26.74 43.4998 28.05 42.2598L28.87 41.1398H28.88Z" stroke="#231F20" stroke-width="1.5" stroke-linecap="round" stroke-linejoin="round"/>
<path d="M31.4499 33.3902C31.4499 33.3902 30.7199 34.5702 28.0599 34.3502L30.2699 30.7002L32.1899 32.0802L31.4499 33.3902Z" stroke="#231F20" stroke-width="1.5" stroke-linecap="round" stroke-linejoin="round"/>
<path d="M34.9299 39.9902C34.9299 39.9902 34.4899 41.4402 34.9299 43.2602" stroke="#231F20" stroke-width="1.5" stroke-linecap="round" stroke-linejoin="round"/>
<path d="M33.74 10.31C35.5515 10.31 37.02 8.84149 37.02 7.03C37.02 5.21851 35.5515 3.75 33.74 3.75C31.9285 3.75 30.46 5.21851 30.46 7.03C30.46 8.84149 31.9285 10.31 33.74 10.31Z" fill="#D6F600" stroke="#231F20" stroke-width="1.5" stroke-linecap="round" stroke-linejoin="round"/>
<path d="M16.51 20.5898C15.96 21.6098 15.47 21.9798 16.05 24.7898L14.92 29.0398C14.92 29.0398 14.41 26.4098 12.49 25.4698C11.16 24.8198 10.59 23.9198 10.42 23.5998L10.58 23.5198C10.58 23.5198 11.29 21.9598 11.31 20.6698C11.33 19.3898 9.87002 18.6398 9.87002 18.6398L9.64002 18.1998C9.33002 17.6098 8.59002 17.3798 8.00002 17.6898L5.65002 18.9298C5.06002 19.2398 4.83002 19.9798 5.14002 20.5698L5.93002 22.0698C6.34002 22.8398 7.43002 23.0498 7.43002 23.0498L7.90002 23.9498C7.90002 23.9498 8.44002 24.5898 9.15002 24.2698C9.55002 24.9598 11.84 28.9198 13.81 32.3798C14.52 33.6198 16.35 33.4198 16.79 32.0698L19.5 24.9998C19.54 24.8798 19.26 22.5498 19.3 22.3998C18.4 21.6298 17.24 20.6898 17.24 20.6898L16.51 20.5998V20.5898Z" fill="#231F20"/>
<path d="M23.74 18.9496C23.74 18.9496 23.14 19.9196 21.31 17.2696C21.31 17.2696 20.72 12.2296 17.05 13.1696C15.13 13.6596 14.84 16.1496 15.15 17.6496C15.46 19.1496 15.79 20.7796 15.79 20.7796L17.88 20.6596C17.88 20.6596 21.92 22.1496 20.92 23.2496" stroke="#231F20" stroke-width="1.5" stroke-linecap="round" stroke-linejoin="round"/>
<path d="M31.4101 21.9795C30.4401 24.5595 28.2501 29.3995 24.4801 32.8395V34.5995H32.4801V25.1095C32.4801 25.1095 32.3001 23.6595 31.4101 21.9795Z" fill="#D6F600"/>
<path d="M31.4101 21.9798C30.2101 19.6998 27.6901 16.9998 22.5101 16.9998C22.5101 16.9998 17.9301 16.5498 17.9301 20.8498C17.9301 20.8498 18.4001 26.8098 24.4601 28.2498L24.4801 34.3898C25.1501 34.3898 27.4801 34.2698 27.4801 34.2698C30.1401 30.7498 30.6101 24.1098 31.4101 21.9798Z" fill="#B6CE0C"/>
<path d="M24.4901 34.59H32.4801V25.1C32.4801 25.1 31.4901 16.99 22.5101 16.99C22.5101 16.99 17.9301 16.54 17.9301 20.84C17.9301 20.84 18.4001 26.8 24.4601 28.24L24.4801 34.59H24.4901Z" stroke="#231F20" stroke-width="1.5" stroke-linecap="round" stroke-linejoin="round"/>
<path d="M35.07 53.9291C35.07 53.9291 32.56 52.0391 31.66 51.1491C30.76 50.2491 28.88 49.1691 26.99 49.4391L28.16 46.9291L29.99 42.6191L25.27 43.7891L24.22 43.0191L19.3 45.4391L23.27 46.1091V49.6191C23.27 49.6191 23.57 51.0591 25.73 51.7691L34.44 55.1791V56.9791C34.44 56.9791 32.29 57.6991 32.02 59.3091H36.6L37.8601 53.7391L35.08 53.9191L35.07 53.9291Z" fill="#231F20"/>
<path d="M20.43 56.9795L22.05 60.6595H13.35C13.35 60.6595 14.44 57.9695 17.93 56.9795H20.43Z" fill="white" stroke="#231F20" stroke-width="1.5" stroke-linecap="round" stroke-linejoin="round"/>
<path d="M27.8201 18.1592C27.8201 18.1592 23.3301 18.1692 24.5001 23.6492L22.4501 26.6392C22.4501 26.6392 22.4201 26.9292 22.1501 25.1392C21.8801 23.3492 21.1201 21.6992 21.1201 21.6992H19.6801C19.6801 21.6992 19.1601 28.4392 20.2401 32.3592C20.4701 33.1992 21.5801 33.4092 22.1201 32.7192L29.6501 23.0092C30.3001 22.3492 30.6701 21.4192 30.5301 20.4992C30.3901 19.5792 29.7601 18.5192 27.8301 18.1592H27.8201Z" fill="white" stroke="#231F20" stroke-width="1.5" stroke-linecap="round" stroke-linejoin="round"/>
<path d="M19.88 21.6999H21.48C21.48 21.6999 22.88 20.6099 23.52 19.4499C24.16 18.2899 23.18 16.8999 23.18 16.8999V16.3899C23.18 15.6999 22.62 15.1299 21.92 15.1299H19.18C18.49 15.1299 17.92 15.6899 17.92 16.3899V18.1399C17.92 19.0399 18.82 19.7499 18.82 19.7499V20.7999C18.82 20.7999 19.01 21.6999 19.87 21.6999H19.88Z" fill="#D6F600" stroke="#231F20" stroke-width="1.5" stroke-linecap="round" stroke-linejoin="round"/>
<path d="M19.15 39.3096L13.35 43.7896C13.35 43.7896 11.82 44.9596 12.8 46.4796C13.78 47.9996 17.93 56.9796 17.93 56.9796H20.43C20.43 56.9796 19.89 51.8596 19.62 49.8896C19.35 47.9196 17.56 46.2996 17.56 46.2996L24.22 43.0196" fill="white"/>
<path d="M19.15 39.3096L13.35 43.7896C13.35 43.7896 11.82 44.9596 12.8 46.4796C13.78 47.9996 17.93 56.9796 17.93 56.9796H20.43C20.43 56.9796 19.89 51.8596 19.62 49.8896C19.35 47.9196 17.56 46.2996 17.56 46.2996L24.22 43.0196" stroke="#231F20" stroke-width="1.5" stroke-linecap="round" stroke-linejoin="round"/>
<path d="M24.7 34.5898L19.15 39.3098L25.27 43.7898C25.27 43.7898 30.84 42.8698 32.04 41.5198C33.24 40.1698 33.98 36.2098 32.48 34.5998H24.7V34.5898Z" fill="white"/>
<path d="M23.67 42.62L33.17 36C33.17 36 34.21 39.49 31.76 41.84L25.26 43.78L23.67 42.61V42.62Z" fill="#D6F600"/>
<path d="M24.7 34.5898L19.15 39.3098L25.27 43.7898C25.27 43.7898 30.84 42.8698 32.04 41.5198C33.24 40.1698 33.98 36.2098 32.48 34.5998H24.7V34.5898Z" stroke="#231F20" stroke-width="1.5" stroke-linecap="round" stroke-linejoin="round"/>
</g>
<defs>
<clipPath id="clip0_7214_423">
<rect width="54.48" height="58.41" fill="white" transform="translate(5 3)"/>
</clipPath>
</defs>
</svg>
