<svg width="64" height="64" viewBox="0 0 64 64" fill="none" xmlns="http://www.w3.org/2000/svg">
<g clip-path="url(#clip0_7214_420)">
<path d="M61.44 35.9396C61.44 32.4396 54.34 29.6096 45.58 29.6096C44.84 29.6096 44.12 29.6396 43.41 29.6796C40.56 28.0096 35.75 26.9096 30.31 26.9096C27.68 26.9096 25.2 27.1696 23.01 27.6196C21.56 27.1596 19.87 26.8096 18.06 26.6496C12.38 26.1396 7.60001 27.5596 7.40001 29.8296C7.31001 30.8196 8.11001 31.8096 9.51001 32.6496C4.87001 33.7596 1.76001 35.7696 1.76001 38.0896C1.76001 41.5896 8.86001 44.4196 17.62 44.4196C18.38 44.4196 19.13 44.3896 19.86 44.3496C19.73 44.6496 19.67 44.9496 19.68 45.2496C19.85 48.0096 26.15 49.8696 33.77 49.4096C41.39 48.9496 47.43 46.3496 47.26 43.5896C47.23 43.1096 47.01 42.6696 46.64 42.2496C54.91 42.0296 61.45 39.2896 61.45 35.9396H61.44Z" stroke="#231F20" stroke-width="1.5" stroke-linecap="round" stroke-linejoin="round"/>
<path d="M46.07 39.8096C51.5707 39.8096 56.03 38.0277 56.03 35.8296C56.03 33.6315 51.5707 31.8496 46.07 31.8496C40.5692 31.8496 36.11 33.6315 36.11 35.8296C36.11 38.0277 40.5692 39.8096 46.07 39.8096Z" fill="#231F20"/>
<path d="M21.35 41.6999C27.7675 41.6999 32.97 39.8464 32.97 37.5599C32.97 35.2735 27.7675 33.4199 21.35 33.4199C14.9324 33.4199 9.72998 35.2735 9.72998 37.5599C9.72998 39.8464 14.9324 41.6999 21.35 41.6999Z" fill="#231F20"/>
<path d="M29.13 39.1491C35.5476 39.1491 40.75 37.0717 40.75 34.5091C40.75 31.9465 35.5476 29.8691 29.13 29.8691C22.7125 29.8691 17.51 31.9465 17.51 34.5091C17.51 37.0717 22.7125 39.1491 29.13 39.1491Z" fill="#231F20"/>
<path d="M28.9389 33.38C29.0892 31.7189 25.8356 30.0669 21.6719 29.6902C17.5081 29.3134 14.0108 30.3546 13.8605 32.0157C13.7102 33.6768 16.9638 35.3288 21.1276 35.7056C25.2914 36.0823 28.7886 35.0411 28.9389 33.38Z" fill="#231F20"/>
<path d="M33.1941 46.349C38.7731 46.0136 43.1975 44.1061 43.0762 42.0884C42.9549 40.0706 38.3339 38.7068 32.7548 39.0422C27.1758 39.3775 22.7514 41.2851 22.8727 43.3028C22.994 45.3205 27.615 46.6844 33.1941 46.349Z" fill="#231F20"/>
<path d="M33.3199 52.6202C35.7399 52.4902 38.0199 52.1902 40.0699 51.7602C42.8399 51.1802 45.1899 50.3802 46.8399 49.4502C48.5799 48.4702 49.5599 47.3502 49.4899 46.2002" stroke="#231F20" stroke-width="1.5" stroke-linecap="round" stroke-linejoin="round"/>
<path d="M20.64 51.3799C22.02 51.8299 23.68 52.1799 25.54 52.3999" stroke="#231F20" stroke-width="1.5" stroke-linecap="round" stroke-linejoin="round"/>
<path d="M16.4301 48.0195C16.4701 48.6895 16.8701 49.3095 17.5601 49.8595" stroke="#231F20" stroke-width="1.5" stroke-linecap="round" stroke-linejoin="round"/>
<path d="M31.36 23.1198C38.88 22.1798 41.3 25.8498 41.3 25.8498C41.3 25.8498 48.2 24.3498 55.45 27.1198" stroke="#231F20" stroke-width="1.5" stroke-linecap="round" stroke-linejoin="round"/>
<path d="M7.45995 36.2998C7.45995 36.2998 4.81995 37.4498 7.45995 39.3698" stroke="#231F20" stroke-width="1.5" stroke-linecap="round" stroke-linejoin="round"/>
<path d="M59.99 41.6996C59.99 41.6996 50.01 44.1896 36.72 42.9796C23.43 41.7696 8.51005 32.6296 8.51005 32.6296C8.51005 32.6296 5.85004 30.8196 6.05004 25.5596L60 41.6996H59.99Z" fill="#B6CE0C"/>
<path d="M6.88004 24.2598L10.35 22.6298C11.31 22.1798 12.38 21.9898 13.44 22.0998C19.84 22.7498 43.52 25.9398 61.03 38.6798C62.36 39.6498 61.63 41.7598 59.99 41.6998C48.02 41.2798 17.73 38.9698 6.41004 26.5698C5.75004 25.8498 6.00004 24.6798 6.89004 24.2698L6.88004 24.2598Z" fill="#D6F600"/>
<path d="M56.53 41.5398C57.8 41.6098 58.96 41.6598 59.99 41.6998C61.63 41.7598 62.36 39.6498 61.03 38.6798C43.52 25.9398 19.84 22.7498 13.44 22.0998C12.38 21.9898 11.32 22.1798 10.35 22.6298L6.88 24.2598C6.74 24.3298 6.61 24.4198 6.5 24.5198C23.29 27.5698 43.65 35.8498 56.52 41.5398H56.53Z" fill="#F6FFA4"/>
<path d="M29.57 27.3796C26.66 26.6796 24.01 26.1696 21.78 25.8096C20.81 25.6496 19.83 25.8196 18.98 26.2896C18.18 26.7296 17.33 27.1996 16.48 27.6596C15.51 28.1896 15.47 29.5796 16.41 30.1496C17.85 31.0196 19.61 31.9196 21.77 32.7996C22.91 33.2696 24.21 33.1596 25.27 32.5196L29.93 29.7196C30.91 29.1296 30.68 27.6496 29.56 27.3796H29.57Z" fill="#B6CE0C"/>
<path d="M50.95 35.5992C46.35 32.9492 41.48 30.9492 36.86 29.4392C35.92 29.1292 34.88 29.2792 34.05 29.8092L28.95 33.0692C28.06 33.6392 28.26 35.0092 29.29 35.2792C34.63 36.6892 41.42 37.8592 50.06 38.4592C51.67 38.5692 52.36 36.4092 50.96 35.5992H50.95Z" fill="#B6CE0C"/>
<path d="M29.57 27.3796C26.66 26.6796 24.01 26.1696 21.78 25.8096C20.81 25.6496 19.83 25.8196 18.98 26.2896C18.18 26.7296 17.33 27.1996 16.48 27.6596C15.51 28.1896 15.47 29.5796 16.41 30.1496C17.85 31.0196 19.61 31.9196 21.77 32.7996C22.91 33.2696 24.21 33.1596 25.27 32.5196L29.93 29.7196C30.91 29.1296 30.68 27.6496 29.56 27.3796H29.57Z" stroke="#231F20" stroke-width="1.5" stroke-linecap="round" stroke-linejoin="round"/>
<path d="M50.95 35.5992C46.35 32.9492 41.48 30.9492 36.86 29.4392C35.92 29.1292 34.88 29.2792 34.05 29.8092L28.95 33.0692C28.06 33.6392 28.26 35.0092 29.29 35.2792C34.63 36.6892 41.42 37.8592 50.06 38.4592C51.67 38.5692 52.36 36.4092 50.96 35.5992H50.95Z" stroke="#231F20" stroke-width="1.5" stroke-linecap="round" stroke-linejoin="round"/>
<path d="M59.99 41.6996C59.99 41.6996 50.01 44.1896 36.72 42.9796C23.43 41.7696 8.51005 32.6296 8.51005 32.6296C8.51005 32.6296 5.85004 30.8196 6.05004 25.5596" stroke="#231F20" stroke-width="1.5" stroke-linecap="round" stroke-linejoin="round"/>
<path d="M6.88004 24.2598L10.35 22.6298C11.31 22.1798 12.38 21.9898 13.44 22.0998C19.84 22.7498 43.52 25.9398 61.03 38.6798C62.36 39.6498 61.63 41.7598 59.99 41.6998C48.02 41.2798 17.73 38.9698 6.41004 26.5698C5.75004 25.8498 6.00004 24.6798 6.89004 24.2698L6.88004 24.2598Z" stroke="#231F20" stroke-width="1.5" stroke-linecap="round" stroke-linejoin="round"/>
<path d="M15.8101 17.3597C15.8101 17.3597 16.3501 13.0297 19.4901 13.7797C22.6301 14.5297 15.8101 17.3597 15.8101 17.3597Z" stroke="#231F20" stroke-width="1.5" stroke-linecap="round" stroke-linejoin="round"/>
<path d="M6.87 49.4297C6.87 49.4297 2.95 49.9297 3.79 52.5297C4.63 55.1297 6.87 49.4297 6.87 49.4297Z" stroke="#231F20" stroke-width="1.5" stroke-linecap="round" stroke-linejoin="round"/>
<path d="M55.47 22.2098C55.47 22.2098 58.75 20.3998 59.86 23.0598C60.97 25.7198 55.47 22.2098 55.47 22.2098Z" stroke="#231F20" stroke-width="1.5" stroke-linecap="round" stroke-linejoin="round"/>
<path d="M56.03 38.6201H61.03" stroke="#231F20" stroke-width="1.5" stroke-linecap="round" stroke-linejoin="round"/>
<path d="M18.06 26.6396H14.63" stroke="#231F20" stroke-width="1.5" stroke-linecap="round" stroke-linejoin="round"/>
<path d="M43.41 55.3597C43.41 55.3597 55.27 53.1597 53.78 46.4297" stroke="#231F20" stroke-width="1.5" stroke-linecap="round" stroke-linejoin="round"/>
<path d="M36.11 56.8703C35.32 56.8703 23.04 57.6003 17.51 54.3203" stroke="#231F20" stroke-width="1.5" stroke-linecap="round" stroke-linejoin="round"/>
<path d="M11.23 46.7496C11.23 46.7496 6.47004 46.4596 3.67004 44.8896" stroke="#231F20" stroke-width="1.5" stroke-linecap="round" stroke-linejoin="round"/>
<path d="M52.85 18.9H31.56C30.35 18.9 29.6 17.6 30.19 16.55L31.09 14.97C31.9 13.55 33.4 12.68 35.03 12.68H36.46C38 12.68 39.41 11.8 40.09 10.41L40.57 9.41C41.36 7.78 43.01 6.75 44.82 6.75H48.67C50.75 6.75 52.58 8.1 53.19 10.09L55 15.98C55.45 17.44 54.36 18.91 52.84 18.91L52.85 18.9Z" stroke="#231F20" stroke-width="1.5" stroke-linecap="round" stroke-linejoin="round"/>
<path d="M48.68 6.75L48.06 10.38C47.82 11.79 46.6 12.82 45.17 12.82H43.72C42.55 12.82 41.49 13.52 41.02 14.6L39.17 18.9" stroke="#231F20" stroke-width="1.5" stroke-linecap="round" stroke-linejoin="round"/>
<path d="M55.0699 17.0703H59.5299" stroke="#231F20" stroke-width="1.5" stroke-linecap="round" stroke-linejoin="round"/>
<path d="M54.65 14.79H57.3" stroke="#231F20" stroke-width="1.5" stroke-linecap="round" stroke-linejoin="round"/>
<path d="M29.98 17.6904H26.25" stroke="#231F20" stroke-width="1.5" stroke-linecap="round" stroke-linejoin="round"/>
</g>
<defs>
<clipPath id="clip0_7214_420">
<rect width="61.47" height="51.69" fill="white" transform="translate(1 6)"/>
</clipPath>
</defs>
</svg>
